<?xml version="1.0" encoding="utf-8"?>
<!-- Generator: Adobe Illustrator 27.9.0, SVG Export Plug-In . SVG Version: 6.00 Build 0)  -->
<svg version="1.1" id="Layer_1" xmlns="http://www.w3.org/2000/svg" xmlns:xlink="http://www.w3.org/1999/xlink" x="0px" y="0px"
	 viewBox="0 0 494 130.2" style="enable-background:new 0 0 494 130.2;" xml:space="preserve">
<style type="text/css">
	.st0{fill:#FBCB00;}
	.st1{fill:#FEFEFE;}
	.st2{fill:#FECC14;}
</style>
<path class="st0" d="M35.1,122.1c-10.7-3.9-20.1-9.8-27.2-18.7c-2.5-3.2-4.5-7-5.7-10.9c-1.4-4.2,0.6-7.8,4.5-10.1
	c3.8-2.2,6.3,0.3,8.7,2.7c5,5.2,9.7,10.5,14.7,15.6c11.8,12.2,40.1,9.4,50.4,0.9c4.3-3.6,7-8,7.8-13.5c0.9-6.6-1.7-12.2-8.1-14.4
	C73,71.3,65.4,69.9,58,68.3c-8.2-1.8-15.6-5.1-21.2-11.4C25,44.1,24.1,34.7,35.3,19c7-9.7,17.5-13.3,28.9-13.1
	c7.5,0.2,15.1,2,22.5,3.7c2.9,0.7,6,2.4,8.2,4.5c2.3,2.2,4.8,5.1,5.3,8.1c0.4,2.7-1,6.4-2.8,8.7c-2.4,3-5.5,0.9-7.9-1
	c-5.7-4.6-11.8-8-19.2-9C62.9,19.8,56,21.4,49.6,25c-5.2,2.9-7.9,7.4-7.4,13.6c0.4,5.7,4.1,8.8,8.8,10.3c7.4,2.4,15,4.2,22.6,6.2
	c18.4,4.7,26,12.5,27.4,28.3c1.5,16.8-6.4,29.9-22.3,36.9c-11.4,5-23.1,7.6-35.4,4.2c-0.8-0.2-1.7-0.1-2.5-0.1
	C39,123.7,37,122.9,35.1,122.1C35,122.1,35.1,122.1,35.1,122.1z"/>
<path class="st0" d="M419.1,56.4c1.7-1.8,3.4-3.6,5.1-5.3c11.7-12,27-14.1,42.5-5.5c5.6,3.1,10.6,7.3,16.1,11.1
	c-0.2-3.5-0.4-7.2-0.5-10.8c0-1.3-0.2-2.8,0.2-4c0.9-2.3,1.9-5.8,3.5-6.3c3.7-1,5.4,2.7,5.7,5.5c1,8.9,2.9,18,1.9,26.8
	c-1.9,16.6-5.5,33-8.7,49.5c-0.6,3-2.2,6-4,8.5c-1,1.4-3.9,2.7-5.3,2.3c-1.5-0.5-3-3.2-3-4.9c-0.1-3.2,0.9-6.5,1.5-10.1
	c-4.1,0.8-8,1.9-12,2.3c-15.3,1.7-29.1-2.8-41-12.1c-10.1-7.9-11.5-18.9-8.4-30.8c0.7-2.7,1-5.4,1.5-8.2l0,0l1-1.1v0.1
	c0.3-0.8,0.7-1.7,1-2.5c0.6-1.1,1.2-2.2,1.8-3.3c0.4-0.4,0.8-0.9,1.2-1.3L419.1,56.4L419.1,56.4L419.1,56.4z M457.5,104.6
	c7.6,0.3,15.7-2.4,20.6-11.1c5.2-9.1,3.7-18.2-2.4-26.2c-3.5-4.7-7.9-9.2-12.8-12.2c-12.2-7.7-23.9-5.7-32.6,4.7
	c-9.2,11.1-9.7,23.8-1,34.1C436.1,102.1,445.4,104.4,457.5,104.6L457.5,104.6L457.5,104.6z"/>
<path class="st0" d="M249,79.7c0.8,8.5,1.7,16.8,2.4,25c0.1,1.8,0.2,4-0.7,5.3c-1.2,1.8-3.4,4.1-5.2,4.2c-1.7,0.1-4.5-2.4-4.9-4.1
	c-1.5-6.3-2.2-12.8-3.1-19.2c-0.5-3.6-0.8-7.2-1.3-11.3h-24c-0.9,3.4-1.6,6.8-2.8,10c-0.9,2.5-1.8,5.2-3.5,7.1
	c-1.4,1.5-4.2,2.8-5.9,2.3c-1.5-0.4-3.4-3.4-3.3-5.2c0.1-3.8,1.1-7.5,2.2-11.2c3.7-12.6,8-25,11.1-37.7c2.5-10,3.5-20.3,5.4-30.4
	c0.6-3.4,1.8-6.8,3.4-9.9c2.8-5.7,8.1-6.2,11.1-0.7c2.9,5.3,4.9,11.3,6.3,17.2c3,13.3,5.5,26.7,8,40.1c0.8,4,2.5,5.7,6.7,5.3
	c3.3-0.3,6.7-0.1,10,0.2c3,0.3,5.5,1.3,5.6,5.1c0.2,3.7-1.2,6.2-5,6.8C257.4,79,253.2,79.2,249,79.7L249,79.7L249,79.7z M225,28.9
	l-1.4-0.1c-2.4,11.6-4.8,23.2-7,34.8c-0.1,0.8,1.8,2.7,2.8,2.8c5,0.3,10.1,0.1,15.4,0.1C231.4,53.4,228.2,41.2,225,28.9L225,28.9
	L225,28.9z"/>
<path class="st0" d="M288.4,30.7c8.8-7,18.8-5.5,28.8-0.7c9.9,4.8,15.5,12.6,15.2,24.2c-0.5,16.3-0.6,32.6-1,48.9
	c0,2.1-0.6,4.4-1.6,6.2c-1,1.7-3.3,4-4.4,3.7c-2-0.5-4.5-2.5-5-4.4c-0.9-3.1-0.4-6.5-0.4-9.8c0.1-15.3,0.5-30.5,0.3-45.8
	c-0.1-5.5-7.8-13.2-13.1-14.5c-5.8-1.4-11.1,1.1-15.6,7.5c-6.6,9.5-7,20.6-8.2,31.4c-0.8,7.2-1.9,14.5-3.1,21.7
	c-0.3,1.8-1.1,3.5-1.8,5.2c-1.2,3.1-3.5,5.7-6.8,3.8c-1.9-1.1-3.7-4.5-3.5-6.7c0.6-7.1,2.6-14.1,3.4-21.1
	c1.3-11.4,2.1-22.8,3.1-34.2c0.3-4-0.1-8.1,0.9-11.9c0.7-2.9,2.5-6.4,4.9-7.7C281.6,25.7,285.1,28.9,288.4,30.7L288.4,30.7
	L288.4,30.7z"/>
<path class="st0" d="M405.6,73.3c-0.1,7.1-0.1,14.2-0.4,21.3c-0.1,2.9-0.5,6-1.2,8.8c-0.8,3.1-1.6,7.1-5.9,6.8
	c-4.7-0.4-5.5-4.6-5.4-8.2c0.1-6.6,0.9-13.2,1.5-19.7V69.5c-0.2-6.6,0.2-13.4-0.9-19.9c-1.2-7-6.1-11.8-12.9-14
	c-5.4-1.8-11,1-15.2,7c-5.1,7.1-6.9,15.3-7.8,23.9c-0.9,8.8-1.8,17.5-3.1,26.2c-0.4,3.1-1.2,6.4-2.9,8.9c-1.2,1.8-3.9,3.6-6.1,3.7
	c-3.2,0.2-4.4-2.8-4-5.7c1-6.9,2.5-13.7,3.2-20.7c1.4-13.2,2.4-26.4,3.6-39.7c0.3-3.5,0.2-7,1.1-10.3c0.6-2.1,2.6-5.1,4.2-5.2
	c2-0.1,4.1,2.2,6.1,3.6c0.5,0.4,0.8,1.1,1.1,1.6c9.1-8.3,19.2-6.7,28.9-2.1c9.6,4.5,16.3,11.5,15.8,23.2c-0.1,2.5,0.2,5,0.3,7.5
	C405.7,62.8,405.7,68.1,405.6,73.3L405.6,73.3L405.6,73.3z"/>
<path class="st0" d="M138.6,40.3c7.2-3.1,14.1-6.2,21-8.8c3.7-1.4,7.7-2.2,11.6-2.8c3.2-0.4,6.1,0.8,6.9,4.3c0.8,3.4,0,6.6-3.4,8
	c-4.9,2-10,3.6-15,5.3c-5.4,1.8-10.8,3.3-16,5.6c-1.6,0.7-3.4,3.3-3.4,5c-0.1,11,0.5,22,0.6,33c0.1,5.6-0.3,11.3-0.7,16.9
	c-0.1,1.4-0.5,3.2-1.4,4.2c-1.4,1.5-3.3,3.2-5,3.3c-1.4,0.1-3.8-2-4.1-3.5c-1.4-5.8-2.7-11.7-3-17.6c-0.5-10.8-0.1-21.6-0.1-33.7
	c-5.1,2-8.4,3.3-11.7,4.6c-3.7,1.3-7.6,2.7-10-2c-2.1-4.1-0.4-7.8,4.9-10.4c3.1-1.5,6.3-3,9.6-4.1c4.3-1.4,5.5-4.1,4.9-8.4
	c-0.4-3.2-0.4-6.6-0.1-9.9c0.3-3.6,2.4-5.6,6.2-5.8s5.4,1.9,6.1,5.2C137.1,32.2,137.8,36,138.6,40.3L138.6,40.3z"/>
<path class="st0" d="M156.2,101.6c-0.1-5.6,4.4-10,10.1-10.1c5.5-0.1,10.5,4.5,10.6,9.8s-4.8,10.1-10.3,10.1
	C160.8,111.4,156.3,107.2,156.2,101.6L156.2,101.6L156.2,101.6z"/>
<path class="st1" d="M405.6,73.3c0-5.3,0-10.6,0-15.9c6.4-7.8,12.8-15.5,19.3-23.3c0.3,0,0.6,0.1,1,0.2c-2.2,7.3-4.5,14.7-6.7,22
	h0.1c-0.4,0.4-0.8,0.9-1.2,1.3c-0.6,1.1-1.2,2.2-1.8,3.3c-0.3,0.8-0.7,1.7-1,2.5v-0.1c-0.3,0.4-0.7,0.7-1,1.1l0,0
	C411.4,67.4,408.5,70.4,405.6,73.3L405.6,73.3L405.6,73.3z"/>
<path class="st1" d="M394.1,69.5v12.8c-8,3.9-16.1,7.4-25.6,8.1C377.3,83.2,385.7,76.4,394.1,69.5z"/>
<path class="st2" d="M415.2,63.4c0.3-0.8,0.7-1.7,1-2.5C415.9,61.7,415.5,62.6,415.2,63.4z"/>
<path class="st2" d="M418,57.6c0.4-0.4,0.8-0.9,1.2-1.3C418.8,56.8,418.4,57.2,418,57.6z"/>
<path class="st2" d="M414.3,64.4c0.3-0.4,0.7-0.7,1-1.1C414.9,63.7,414.6,64.1,414.3,64.4z"/>
</svg>
