<?xml version="1.0" encoding="UTF-8"?>
<svg id="Layer_1" data-name="Layer 1" xmlns="http://www.w3.org/2000/svg" viewBox="0 0 1004.29 907.88">
  <defs>
    <style>
      .cls-1 {
        fill: #c52b37;
      }

      .cls-1, .cls-2, .cls-3 {
        stroke-width: 0px;
      }

      .cls-2 {
        fill: #fecc14;
      }

      .cls-3 {
        fill: #fefefe;
      }
    </style>
  </defs>
  <path class="cls-2" d="m407.6,675.07c-34.93-.72-69.2-4.57-102.23-16.33-25.84-9.19-47.39-24.32-64.75-45.85-21.04-26.1-26.39-55.54-21.57-87.84,6.48-43.41,26.05-80.23,54.99-112.74,44.69-50.22,95.14-93.13,154.87-124.61,17.05-8.98,34.76-15.75,53.83-19.1,27.01-4.75,52.65-14.29,77.99-24.35,37.25-14.79,75.67-17.32,114.9-12.52,13.02,1.59,26.04,3.73,38.8,6.71,23.94,5.6,42.86,20,60.62,36.23,1.76,1.61,4.42,2.24,6.63,3.39,1.28.67,2.97,1.16,3.67,2.25,11.53,17.86,24.25,34.95,30.52,55.84,3.37,11.24,3.04,22.69,4.8,33.97,1.24,7.97,3.01,16.06,5.99,23.51,6.85,17.09,13.52,34,12,52.99-1.44,18.03-6.14,34.38-18.89,48.21-12.18,13.21-23.17,27.51-34.69,41.33-17.04,20.44-37.88,36.45-59.9,51.01-48.76,32.26-102.1,53.72-159.18,65.6-32.54,6.78-65.32,12.64-98.19,17.54-19.86,2.96-40.12,3.27-60.2,4.77Zm263.83-194.25c-.52,6.57-1.32,13.14-1.46,19.73-.08,3.64.72,7.81,5.43,8.19,4.35.35,5.09-3.66,5.93-6.76.77-2.84,1.13-5.86,1.24-8.81.27-7.11.29-14.23.4-21.34,2.9-2.98,5.79-5.96,8.69-8.94-.5,2.72-.84,5.49-1.53,8.17-3.08,11.9-1.7,22.81,8.44,30.76,11.94,9.35,25.67,13.87,41.01,12.14,4-.45,7.93-1.52,11.99-2.32-.58,3.55-1.56,6.82-1.48,10.06.04,1.77,1.55,4.47,3,4.95,1.41.47,4.24-.87,5.28-2.28,1.83-2.48,3.41-5.5,4-8.5,3.19-16.45,6.78-32.89,8.71-49.5,1.02-8.74-.8-17.86-1.86-26.75-.33-2.79-2.02-6.53-5.72-5.48-1.66.47-2.61,3.99-3.54,6.27-.47,1.16-.27,2.63-.23,3.96.12,3.66.31,7.32.47,10.84-5.5-3.84-10.54-7.98-16.14-11.13-15.43-8.67-30.75-6.51-42.48,5.47-1.72,1.75-3.39,3.55-5.09,5.33,2.24-7.34,4.48-14.68,6.73-22.02-.32-.05-.64-.11-.97-.16-6.42,7.76-12.84,15.51-19.26,23.27-.1-2.49-.38-4.99-.27-7.47.5-11.68-6.19-18.72-15.78-23.2-9.76-4.57-19.78-6.12-28.93,2.14-.38-.56-.63-1.27-1.14-1.62-2.01-1.39-4.16-3.78-6.13-3.65-1.55.1-3.6,3.13-4.19,5.22-.92,3.29-.8,6.88-1.12,10.34-1.18,13.22-2.21,26.46-3.61,39.66-.74,6.92-2.25,13.75-3.21,20.65-.41,2.93.75,5.87,3.97,5.71,2.13-.1,4.9-1.82,6.06-3.65,1.62-2.57,2.42-5.86,2.85-8.94,1.22-8.71,2.15-17.47,3.06-26.22.89-8.54,2.71-16.73,7.81-23.88,4.29-6,9.83-8.83,15.24-6.98,6.7,2.29,11.63,7.1,12.85,14.05,1.14,6.48.69,13.24.94,19.88-8.4,6.86-16.79,13.72-25.63,20.94,9.52-.74,17.64-4.23,25.63-8.14Zm-359.01,39.78c.27.77.4,1.64.85,2.28,9.92,14.26,20.84,27.67,34.35,38.71,3.01,2.46,6.64,4.96,10.32,5.67,11.25,2.17,22.67,3.48,34.03,5.13.07-.41.15-.82.22-1.23-1.65-.7-3.3-1.4-4.94-2.11-25.83-11.1-47.98-27.71-68.94-46.11.83.01,1.7-.14,2.48.07,12.38,3.37,24.05.84,35.43-4.19,15.91-7.04,23.82-20.16,22.3-36.95-1.43-15.8-9.07-23.66-27.43-28.34-7.56-1.93-15.17-3.73-22.57-6.15-4.74-1.55-8.44-4.64-8.85-10.33-.45-6.2,2.25-10.75,7.44-13.64,6.38-3.56,13.24-5.14,20.67-4.06,7.35,1.07,13.5,4.43,19.16,9.02,2.37,1.92,5.47,4.06,7.88,1.02,1.82-2.29,3.25-5.98,2.8-8.71-.48-2.93-2.96-5.9-5.29-8.06-2.24-2.08-5.25-3.86-8.21-4.53-7.42-1.67-14.98-3.52-22.52-3.67-11.41-.23-21.97,3.37-28.91,13.07-11.21,15.67-10.28,25.1,1.25,37.98,5.64,6.3,13.01,9.62,21.19,11.41,7.45,1.63,15.03,2.99,22.24,5.39,6.39,2.13,9.04,7.74,8.12,14.36-.77,5.52-3.45,9.97-7.76,13.51-10.34,8.49-38.6,11.27-50.42-.88-4.98-5.12-9.71-10.49-14.66-15.64-2.33-2.42-4.89-4.94-8.67-2.7-3.83,2.28-5.83,5.91-4.48,10.11,1.24,3.85,3.2,7.7,5.72,10.86,7.13,8.93,16.53,14.83,27.23,18.69Zm240.08-241.86c.09.36.18.72.27,1.08.61.06,1.23.16,1.84.17,36.98.74,73.82,3.1,110.41,8.83,31.17,4.88,61.09,13.5,88.48,29.41,13.04,7.57,25.42,16.28,37.8,24.28-.01-.05-.14-.85-.34-1.63-5.19-19.48-16.87-34.61-32.38-46.82-28.77-22.65-62.04-32.85-98.28-33.89-25.96-.75-51.46,2.89-76.53,9.44-10.5,2.75-20.85,6.06-31.27,9.11Zm-26.19,199.45c4.28-.44,8.41-.74,12.5-1.32,3.83-.54,5.16-3.04,4.99-6.78-.18-3.75-2.67-4.79-5.65-5.05-3.31-.29-6.69-.49-9.98-.16-4.2.42-5.95-1.33-6.69-5.29-2.52-13.39-4.99-26.8-8.02-40.08-1.35-5.92-3.33-11.92-6.26-17.19-3.06-5.49-8.34-4.9-11.14.75-1.53,3.09-2.72,6.48-3.37,9.87-1.94,10.12-2.95,20.45-5.43,30.42-3.16,12.71-7.48,25.13-11.14,37.71-1.06,3.65-2.08,7.43-2.19,11.18-.05,1.8,1.75,4.75,3.29,5.2,1.66.49,4.55-.83,5.91-2.29,1.72-1.86,2.66-4.57,3.53-7.06,1.13-3.24,1.86-6.63,2.78-10.01h24.01c.46,4.07.78,7.71,1.3,11.32.91,6.41,1.63,12.88,3.11,19.17.42,1.78,3.24,4.19,4.9,4.14,1.83-.05,4-2.32,5.23-4.16.9-1.34.82-3.55.68-5.33-.68-8.27-1.54-16.52-2.35-25.04Zm39.42-48.96c-3.24-1.83-6.76-5.02-8.03-4.29-2.38,1.37-4.17,4.82-4.9,7.74-.96,3.8-.57,7.92-.9,11.89-.96,11.41-1.78,22.84-3.07,34.22-.8,7.08-2.72,14.05-3.36,21.14-.2,2.17,1.59,5.6,3.47,6.65,3.22,1.81,5.53-.74,6.77-3.85.68-1.7,1.52-3.39,1.8-5.17,1.15-7.21,2.27-14.43,3.09-21.68,1.23-10.9,1.63-21.98,8.21-31.45,4.44-6.39,9.76-8.93,15.56-7.49,5.33,1.32,13.03,9.06,13.1,14.55.21,15.27-.18,30.54-.3,45.82-.03,3.29-.52,6.76.35,9.82.53,1.88,3.05,3.9,5.04,4.41,1.14.29,3.46-2.06,4.44-3.71,1.06-1.77,1.57-4.09,1.63-6.19.41-16.29.48-32.59,1.01-48.88.38-11.64-5.27-19.35-15.16-24.2-9.92-4.87-19.98-6.31-28.75.67Zm-149.79,9.53c-.8-4.28-1.45-8.04-2.2-11.78-.66-3.29-2.26-5.42-6.09-5.22-3.84.2-5.94,2.19-6.23,5.82-.26,3.28-.34,6.65.09,9.9.56,4.27-.64,6.96-4.91,8.38-3.3,1.09-6.5,2.59-9.62,4.14-5.22,2.59-6.94,6.32-4.85,10.43,2.41,4.72,6.26,3.38,9.96,2.03,3.35-1.22,6.65-2.59,11.71-4.58,0,12.18-.33,22.97.13,33.73.25,5.91,1.6,11.81,2.98,17.59.36,1.49,2.75,3.53,4.12,3.47,1.75-.08,3.66-1.81,5.02-3.28.92-1,1.34-2.73,1.43-4.18.37-5.63.75-11.28.71-16.93-.09-10.99-.63-21.97-.57-32.96,0-1.72,1.83-4.28,3.45-4.98,5.17-2.23,10.65-3.75,16-5.58,5.02-1.72,10.13-3.27,15.02-5.32,3.39-1.42,4.25-4.58,3.4-8-.88-3.56-3.78-4.74-6.94-4.32-3.92.53-7.89,1.39-11.58,2.78-6.98,2.64-13.78,5.76-21.03,8.84Zm-155.66,159.03c21.72,31.8,54.77,38.39,89.64,40.9-32.87-6.98-62.61-20.92-89.64-40.9Zm2.12-39.77c-5.45-21.71-6.14-43.56-1.63-66.14-14.51,17.87-13.74,48.05,1.63,66.14Zm171.19-57.95c.06,5.61,4.55,9.83,10.41,9.8,5.54-.03,10.41-4.8,10.31-10.09-.1-5.33-5.06-9.93-10.59-9.83-5.77.11-10.2,4.53-10.14,10.11Zm35.31,81.7c-8.69.8-17.72,1.64-26.54,2.45,11.41,4.67,21.48,3.65,26.54-2.45Z"/>
  <path class="cls-2" d="m322.58,735.55c-.31,13.3-4.41,25.64-12.53,36.1-14.89,19.18-30.11,38.15-45.91,56.59-12.34,14.41-25.55,28.1-38.77,41.73-8.1,8.35-16.53,16.48-25.57,23.77-8.4,6.78-19.24,5.51-26.4-1.25-4.65-4.39-5.69-9.46-3.26-14.93,1.65-3.71,4.08-7.28,6.88-10.23,25.28-26.53,50.95-52.7,76.04-79.41,14.42-15.35,26.82-32.22,34.66-52.11,1.61-4.09,4.09-8.08,7-11.38,6.15-6.98,12.44-8.48,19.61-5.63,7.75,3.08,8.04,9.81,8.24,16.75Z"/>
  <path class="cls-2" d="m744.89,203.02c-.24-14.45,4.9-27.36,13.7-38.26,14.01-17.35,28.86-34.04,43.73-50.67,19.76-22.11,39.88-43.9,59.84-65.82.56-.62,1.11-1.24,1.69-1.85,6.41-6.72,9.45-7.71,15.03-4.9,6.71,3.38,10.48,10.6,9.34,17.78-1.37,8.63-6.25,15.38-11.97,21.5-12.41,13.26-25.25,26.12-37.51,39.51-15.98,17.44-31.53,35.26-47.36,52.84-6.26,6.95-10.5,14.85-12.91,23.9-1.58,5.93-3.51,11.83-5.98,17.43-3.02,6.87-8.2,9.92-13.47,8.97-6.92-1.26-13.41-7.83-14.08-14.44-.2-1.98-.03-3.99-.03-5.99Z"/>
  <path class="cls-2" d="m514.56,12.6c-2.53,12.8-5.47,27.81-8.47,42.81-7.46,37.28-22.21,72.04-36.73,106.9-3.12,7.48-5.19,15.4-7.7,23.13-.97,3-1.82,6.04-2.76,9.05-1.22,3.92-3.89,5.15-7.75,4.09-.64-.18-1.28-.38-1.92-.57-14.53-4.19-19.91-11.8-17.13-26.5,1.65-8.74,3.77-17.85,7.94-25.56,13.52-24.95,22.04-51.67,29.56-78.76,4.31-15.52,7.63-31.32,11.07-47.07,2.25-10.3,6.97-17.85,18.16-19.86,8.17-1.46,15.9,3.35,15.72,12.34Z"/>
  <path class="cls-2" d="m537.47,736.63c-1.63,7.44-2.65,15.08-5,22.29-13.1,40.14-26.44,80.21-39.93,120.23-2.22,6.58-5.13,13.03-8.57,19.05-4.77,8.35-19.1,12.11-27.81,8.03-3.23-1.51-5.13-3.99-4.55-7.51.99-6.05,1.73-12.26,3.73-18,9.64-27.63,19.65-55.12,29.55-82.66,6.75-18.77,13.79-37.42,17.59-57.14,1.1-5.74,3.98-11.27,6.76-16.51,3.4-6.4,7.66-7.58,16.29-5.71,6.98,1.51,10.12,4.83,10.88,11.76.22,1.97.03,3.99.03,5.99.35.06.69.13,1.04.19Z"/>
  <path class="cls-2" d="m174.84,357.18c1.76-46.11-8.71-89.48-29.15-130.63-2.44-4.91-5.43-9.59-7.43-14.66-3.59-9.11-.92-18.04,6.59-24.24,4.81-3.97,9.65-3.36,13.23,1.8,1.04,1.49,1.73,3.21,2.61,4.81,5.36,9.75,10.56,19.6,16.14,29.23,10.43,18.01,18.32,36.84,21.22,57.66,4.46,32.01,8.86,64,7.52,96.43-.21,5.09-1.46,10.17-2.6,15.17-.83,3.66-3.63,5.31-7.31,5.75-11.02,1.31-20.58-6.76-20.8-17.83-.16-7.83-.03-15.66-.03-23.49Z"/>
  <path class="cls-2" d="m769.9,839.12c-2.67,5.67-5,12.27-8.68,17.99-3.66,5.69-9.95,6.08-14.45.98-4.01-4.54-7.88-9.75-9.92-15.36-5.72-15.75-11.14-31.67-15.45-47.85-9.16-34.36-17.67-68.89-26.1-103.44-1.18-4.85-1.2-10.28-.41-15.23,1.1-6.96,6.47-11.09,13.56-12.02,6.32-.83,11.76,1.41,14.29,8.38,3.19,8.81,5.16,18.16,6.78,27.42,6.51,37.2,13.24,74.33,28.07,109.37,2.65,6.27,5.85,12.32,8.56,18.57,1.37,3.15,2.21,6.52,3.75,11.17Z"/>
  <path class="cls-2" d="m160.53,587.88c-.49,2.22-.93,6.63-2.57,10.54-.93,2.23-3.56,4.63-5.88,5.24-5.78,1.53-17.38-4.44-18.93-10.18-3.14-11.64-11.57-17.88-21.35-23.02-15.76-8.28-31.95-15.8-47.3-24.77-17.52-10.24-34.34-21.68-51.44-32.65-11.18-7.17-14.53-17.64-12.49-30.27,1.55-9.63,5.31-11.77,13.52-6.77,14.21,8.66,27.99,18.01,42.16,26.74,21.96,13.53,44.17,26.67,66.13,40.2,8.36,5.15,16.45,10.76,24.49,16.39,9.12,6.38,13.4,15.41,13.66,28.55Z"/>
  <path class="cls-2" d="m1004.25,543.78c-1.09,4.83-1.71,9.83-3.38,14.45-2.09,5.8-6.55,7.35-12.07,4.54-2.93-1.49-5.62-3.57-8.15-5.71-26.09-22.07-53.38-42.48-82.16-60.96-11.03-7.08-21.4-15.25-31.69-23.4-5.58-4.42-9.07-10.65-10.55-17.71-.54-2.56-.75-5.33-.43-7.92,1.2-9.67,5.91-13.19,14.92-10.1,5.87,2.01,11.6,5.13,16.62,8.8,26.47,19.37,52.64,39.14,79.02,58.64,8.57,6.33,17.41,12.29,26.17,18.35,7.33,5.06,12.21,11.35,11.69,21.03Z"/>
  <path class="cls-2" d="m960.17,256.05c-8.71-1.5-16.43,1.92-24.27,7.31-13.69,9.41-28.63,17.03-42.15,26.65-11.32,8.05-21.36,17.91-32,26.93-2.78,2.36-5.58,4.75-8.62,6.74-4.47,2.92-9.03,2.59-13.62-.18-12.14-7.31-12.75-17.57-.62-27.24,22.62-18.04,44.33-37.31,69.95-51.35,12.1-6.63,23.57-14.39,35.43-21.47,10.28-6.13,21.31-8.22,33.12-5.48,11.95,2.77,16.68,11.42,12.49,22.93-3.25,8.93-11.41,14.87-20.91,15.16-2.66.08-5.33.01-8.8.01Z"/>
  <path class="cls-1" d="m312.43,520.6c-10.7-3.86-20.1-9.76-27.23-18.69-2.52-3.16-4.48-7.01-5.72-10.86-1.35-4.21.65-7.84,4.48-10.11,3.78-2.25,6.34.28,8.67,2.7,4.95,5.15,9.68,10.52,14.66,15.64,11.82,12.15,40.09,9.37,50.42.88,4.32-3.55,6.99-7.99,7.76-13.51.93-6.62-1.73-12.23-8.12-14.36-7.21-2.4-14.78-3.76-22.24-5.39-8.18-1.79-15.55-5.12-21.19-11.41-11.53-12.88-12.46-22.32-1.25-37.98,6.94-9.7,17.51-13.31,28.91-13.07,7.54.15,15.1,2,22.52,3.67,2.95.66,5.97,2.45,8.21,4.53,2.33,2.17,4.81,5.13,5.29,8.06.45,2.73-.98,6.41-2.8,8.71-2.42,3.04-5.51.9-7.88-1.02-5.66-4.59-11.81-7.95-19.16-9.02-7.42-1.08-14.29.5-20.67,4.06-5.18,2.89-7.89,7.44-7.44,13.64.41,5.69,4.11,8.78,8.85,10.33,7.4,2.42,15.02,4.23,22.57,6.15,18.36,4.68,26.01,12.54,27.43,28.34,1.52,16.79-6.39,29.91-22.3,36.95-11.37,5.03-23.05,7.56-35.43,4.19-.77-.21-1.65-.05-2.48-.07-1.96-.78-3.93-1.56-5.89-2.34Z"/>
  <path class="cls-1" d="m696.5,454.88c1.7-1.78,3.37-3.57,5.09-5.33,11.74-11.99,27.05-14.14,42.48-5.47,5.6,3.14,10.64,7.29,16.14,11.13-.16-3.51-.35-7.17-.47-10.84-.04-1.33-.25-2.8.23-3.96.93-2.28,1.88-5.8,3.54-6.27,3.7-1.05,5.39,2.69,5.72,5.48,1.05,8.89,2.88,18.02,1.86,26.75-1.94,16.62-5.52,33.05-8.71,49.5-.58,3.01-2.16,6.02-4,8.5-1.04,1.41-3.87,2.75-5.28,2.28-1.45-.48-2.95-3.18-3-4.95-.08-3.24.89-6.51,1.48-10.06-4.06.8-7.99,1.87-11.99,2.32-15.34,1.72-29.07-2.79-41.01-12.14-10.14-7.94-11.53-18.86-8.44-30.76.69-2.68,1.03-5.44,1.53-8.17,0,0-.05.03-.05.03l.99-1.08s-.03.06-.03.06c.34-.83.69-1.67,1.03-2.5.59-1.09,1.18-2.17,1.77-3.26.41-.43.82-.87,1.24-1.3,0,0-.11.03-.11.03Zm38.34,48.2c7.6.26,15.71-2.44,20.59-11.09,5.16-9.13,3.66-18.19-2.35-26.18-3.52-4.68-7.89-9.16-12.8-12.25-12.23-7.7-23.94-5.66-32.58,4.67-9.25,11.06-9.68,23.75-1.05,34.12,6.85,8.23,16.15,10.58,28.18,10.73Z"/>
  <path class="cls-1" d="m526.32,478.19c.82,8.52,1.67,16.77,2.35,25.04.15,1.78.22,4-.68,5.33-1.24,1.83-3.41,4.11-5.23,4.16-1.66.05-4.48-2.37-4.9-4.14-1.48-6.28-2.2-12.75-3.11-19.17-.51-3.61-.84-7.25-1.3-11.32h-24.01c-.92,3.38-1.65,6.76-2.78,10.01-.87,2.49-1.81,5.2-3.53,7.06-1.35,1.46-4.24,2.78-5.91,2.29-1.54-.45-3.35-3.4-3.29-5.2.11-3.75,1.13-7.53,2.19-11.18,3.67-12.59,7.98-25,11.14-37.71,2.48-9.97,3.49-20.3,5.43-30.42.65-3.39,1.83-6.77,3.37-9.87,2.8-5.65,8.09-6.25,11.14-.75,2.93,5.27,4.91,11.27,6.26,17.19,3.04,13.28,5.51,26.69,8.02,40.08.75,3.97,2.5,5.71,6.69,5.29,3.29-.33,6.67-.13,9.98.16,2.98.26,5.47,1.3,5.65,5.05.18,3.74-1.16,6.24-4.99,6.78-4.09.58-8.23.88-12.5,1.32Zm-23.93-50.78l-1.44-.1c-2.38,11.59-4.82,23.18-6.98,34.81-.14.77,1.78,2.71,2.82,2.77,5.04.29,10.1.13,15.37.13-3.4-13.09-6.59-25.35-9.77-37.62Z"/>
  <path class="cls-1" d="m565.74,429.24c8.77-6.98,18.83-5.54,28.75-.67,9.89,4.85,15.54,12.56,15.16,24.2-.53,16.29-.6,32.59-1.01,48.88-.05,2.1-.57,4.42-1.63,6.19-.98,1.65-3.3,4-4.44,3.71-1.99-.51-4.51-2.52-5.04-4.41-.87-3.06-.38-6.53-.35-9.82.12-15.27.51-30.55.3-45.82-.08-5.48-7.77-13.23-13.1-14.55-5.8-1.44-11.11,1.1-15.56,7.49-6.58,9.48-6.98,20.55-8.21,31.45-.82,7.25-1.94,14.47-3.09,21.68-.28,1.77-1.12,3.47-1.8,5.17-1.24,3.11-3.55,5.65-6.77,3.85-1.88-1.06-3.67-4.48-3.47-6.65.64-7.09,2.56-14.05,3.36-21.14,1.29-11.38,2.11-22.81,3.07-34.22.33-3.97-.06-8.09.9-11.89.73-2.91,2.52-6.37,4.9-7.74,1.27-.73,4.79,2.45,8.03,4.29Z"/>
  <path class="cls-1" d="m682.98,471.84c-.12,7.11-.14,14.23-.4,21.34-.11,2.95-.47,5.97-1.24,8.81-.84,3.1-1.59,7.11-5.93,6.76-4.71-.38-5.51-4.56-5.43-8.19.14-6.58.94-13.15,1.46-19.73,0-4.27,0-8.53,0-12.8-.25-6.64.2-13.4-.94-19.88-1.22-6.95-6.15-11.76-12.85-14.05-5.41-1.85-10.96.97-15.24,6.98-5.1,7.14-6.92,15.34-7.81,23.88-.91,8.75-1.84,17.51-3.06,26.22-.43,3.08-1.23,6.37-2.85,8.94-1.16,1.83-3.93,3.55-6.06,3.65-3.22.16-4.38-2.78-3.97-5.71.96-6.9,2.47-13.73,3.21-20.65,1.41-13.2,2.43-26.44,3.61-39.66.31-3.46.19-7.05,1.12-10.34.58-2.08,2.63-5.12,4.19-5.22,1.96-.13,4.12,2.25,6.13,3.65.5.35.76,1.06,1.14,1.62,9.15-8.27,19.17-6.71,28.93-2.14,9.58,4.49,16.28,11.53,15.78,23.2-.11,2.48.17,4.98.27,7.47,0,5.29-.02,10.58-.02,15.86Z"/>
  <path class="cls-1" d="m415.95,438.76c7.25-3.08,14.05-6.2,21.03-8.84,3.69-1.39,7.66-2.25,11.58-2.78,3.16-.43,6.06.76,6.94,4.32.84,3.42-.02,6.58-3.4,8-4.89,2.05-9.99,3.6-15.02,5.32-5.35,1.83-10.83,3.35-16,5.58-1.62.7-3.44,3.26-3.45,4.98-.06,10.98.48,21.97.57,32.96.05,5.64-.34,11.29-.71,16.93-.09,1.44-.51,3.18-1.43,4.18-1.36,1.47-3.27,3.2-5.02,3.28-1.37.06-3.77-1.98-4.12-3.47-1.38-5.78-2.73-11.69-2.98-17.59-.46-10.76-.13-21.55-.13-33.73-5.07,1.99-8.37,3.35-11.71,4.58-3.7,1.35-7.55,2.69-9.96-2.03-2.09-4.11-.37-7.83,4.85-10.43,3.13-1.55,6.32-3.05,9.62-4.14,4.27-1.41,5.47-4.1,4.91-8.38-.43-3.25-.35-6.62-.09-9.9.29-3.62,2.39-5.62,6.23-5.82,3.83-.2,5.43,1.93,6.09,5.22.75,3.74,1.41,7.5,2.2,11.78Z"/>
  <path class="cls-3" d="m312.43,520.6c1.96.78,3.93,1.56,5.89,2.34,20.96,18.39,43.1,35,68.94,46.11,1.65.71,3.3,1.41,4.94,2.11-.07.41-.15.82-.22,1.23-11.36-1.65-22.78-2.96-34.03-5.13-3.68-.71-7.31-3.21-10.32-5.67-13.51-11.04-24.43-24.45-34.35-38.71-.45-.64-.57-1.51-.85-2.28Z"/>
  <path class="cls-3" d="m260.29,597.8c27.03,19.98,56.77,33.93,89.64,40.9-34.88-2.51-67.92-9.1-89.64-40.9Z"/>
  <path class="cls-3" d="m262.4,558.03c-15.37-18.09-16.14-48.26-1.63-66.14-4.51,22.57-3.82,44.42,1.63,66.14Z"/>
  <path class="cls-1" d="m433.6,500.08c-.06-5.58,4.37-10,10.14-10.11,5.52-.11,10.49,4.5,10.59,9.83.1,5.29-4.78,10.06-10.31,10.09-5.87.03-10.35-4.19-10.41-9.8Z"/>
  <path class="cls-3" d="m682.98,471.84c0-5.29.02-10.58.02-15.86,6.42-7.76,12.84-15.52,19.26-23.27.32.05.64.11.97.16-2.24,7.34-4.48,14.68-6.73,22.02,0,0,.11-.03.11-.03-.41.43-.82.87-1.24,1.3-.59,1.09-1.18,2.17-1.77,3.26-.34.83-.69,1.66-1.03,2.5,0,0,.03-.06.03-.06-.33.36-.66.72-.99,1.08,0,0,.05-.03.05-.03-2.9,2.98-5.79,5.96-8.69,8.94Z"/>
  <path class="cls-3" d="m671.44,468.02c0,4.27,0,8.53,0,12.8-7.99,3.91-16.11,7.4-25.63,8.14,8.84-7.22,17.24-14.08,25.63-20.94Z"/>
  <path class="cls-3" d="m468.91,581.78c-5.05,6.1-15.13,7.12-26.54,2.45,8.82-.81,17.85-1.65,26.54-2.45Z"/>
  <path class="cls-2" d="m734.85,503.08c-12.03-.15-21.33-2.5-28.18-10.73-8.63-10.37-8.2-23.06,1.05-34.12,8.63-10.32,20.34-12.36,32.58-4.67,4.91,3.09,9.28,7.57,12.8,12.25,6.01,7.98,7.51,17.05,2.35,26.18-4.89,8.65-13,11.35-20.59,11.09Z"/>
  <path class="cls-2" d="m692.57,461.9c.34-.83.69-1.66,1.03-2.5-.34.83-.69,1.66-1.03,2.5Z"/>
  <path class="cls-2" d="m695.37,456.15c.41-.43.82-.87,1.24-1.3-.41.43-.82.87-1.24,1.3Z"/>
  <path class="cls-2" d="m691.62,462.93c.33-.36.66-.72.99-1.08-.33.36-.66.72-.99,1.08Z"/>
  <path class="cls-2" d="m502.39,427.41c3.19,12.27,6.37,24.53,9.77,37.62-5.28,0-10.34.16-15.37-.13-1.04-.06-2.96-2-2.82-2.77,2.16-11.63,4.6-23.22,6.98-34.81l1.44.1Z"/>
</svg>